<svg width="24" height="24" viewBox="0 0 24 24" fill="none" xmlns="http://www.w3.org/2000/svg">
<path d="M11.9997 1.44C6.52288 1.44 2.02019 5.60678 1.49219 10.9444L6.86406 13.6941C7.40646 13.2381 8.11169 12.96 8.87969 12.96H8.90406C9.09126 12.672 9.30659 12.3116 9.53219 11.9372C10.0026 11.1644 10.5307 10.2908 11.0491 9.61875C11.1643 7.47315 12.9453 5.76 15.1197 5.76C17.3709 5.76 19.1997 7.5888 19.1997 9.84C19.1997 12.0144 17.4865 13.7954 15.3409 13.9106C14.6689 14.429 13.8001 14.9572 13.0225 15.4228C12.6481 15.6532 12.2877 15.8684 11.9997 16.0556V16.08C11.9997 17.8032 10.6029 19.2 8.87969 19.2C7.15649 19.2 5.75969 17.8032 5.75969 16.08C5.75969 15.9984 5.76426 15.9216 5.76906 15.84L1.57375 13.6894C2.38495 18.7198 6.74369 22.56 11.9997 22.56C17.8317 22.56 22.5597 17.832 22.5597 12C22.5597 6.168 17.8317 1.44 11.9997 1.44ZM15.1197 6.72C13.4013 6.72 11.9997 8.1216 11.9997 9.84C11.9997 11.5584 13.4013 12.96 15.1197 12.96C16.8381 12.96 18.2397 11.5584 18.2397 9.84C18.2397 8.1216 16.8381 6.72 15.1197 6.72ZM15.1197 7.68C16.3149 7.68 17.2797 8.6448 17.2797 9.84C17.2797 11.0352 16.3149 12 15.1197 12C13.9245 12 12.9597 11.0352 12.9597 9.84C12.9597 8.6448 13.9245 7.68 15.1197 7.68ZM8.87968 13.92C8.50048 13.92 8.14063 14.0162 7.83343 14.1938L9.42718 15.0094C10.0176 15.3118 10.2479 16.0371 9.9503 16.6275C9.73431 17.0403 9.31648 17.28 8.87968 17.28C8.69248 17.28 8.50978 17.237 8.33218 17.1506L6.73374 16.3294C6.85854 17.4046 7.77088 18.24 8.87968 18.24C10.0749 18.24 11.0397 17.2752 11.0397 16.08C11.0397 14.8848 10.0749 13.92 8.87968 13.92Z" fill="#858585"/>
</svg>
